<?xml version="1.0" encoding="UTF-8"?>
<svg id="uuid-710c5261-fca6-4afd-bba4-28147b9b33a5" data-name="Layer_1" xmlns="http://www.w3.org/2000/svg" viewBox="0 0 744.71 683.15">
  <g>
    <g>
      <path d="M51.59,591.63l-26.01-64.17v64.17H0v-134.31h25.58l38.8,95.94,38.8-95.94h25.58v134.31h-25.58v-64.17l-26.01,64.17h-25.58Z" fill="#1D1D1D"/>
      <path d="M217.68,487.16h25.58v104.47h-23.45l-1.92-11.94c-8.74,8.95-20.47,13.64-32.62,13.64-28.57,0-51.17-22.39-51.17-53.51s22.6-53.73,51.17-53.73c12.15,0,23.67,4.69,32.41,13.43v-12.37ZM188.04,510.62c-15.99,0-28.99,11.3-28.99,29.21s13,29,28.99,29,29.63-11.3,29.63-29-13.22-29.21-29.63-29.21Z" fill="#1D1D1D"/>
      <path d="M331.1,487.16h25.58v104.47h-23.45l-1.92-11.94c-8.74,8.95-20.47,13.64-32.62,13.64-28.57,0-51.17-22.39-51.17-53.51s22.6-53.73,51.17-53.73c12.15,0,23.67,4.69,32.41,13.43v-12.37ZM301.47,510.62c-15.99,0-28.99,11.3-28.99,29.21s13,29,28.99,29,29.63-11.3,29.63-29-13.22-29.21-29.63-29.21Z" fill="#1D1D1D"/>
      <path d="M463.28,591.63h-25.37v-55.43c0-17.91-7.67-25.58-21.75-25.58-18.12,0-28.57,14.92-28.57,14.92v66.09h-25.58v-104.47h23.45l2.13,13.86c8.53-9.81,20.04-14.92,33.9-14.92,24.3,0,41.79,18.55,41.79,43.71v61.83Z" fill="#1D1D1D"/>
      <path d="M551.33,487.16h25.58v104.47h-23.45l-1.92-11.94c-8.74,8.95-20.47,13.64-32.62,13.64-28.57,0-51.17-22.39-51.17-53.51s22.6-53.73,51.17-53.73c12.15,0,23.67,4.69,32.41,13.43v-12.37ZM521.7,510.62c-15.99,0-28.99,11.3-28.99,29.21s13,29,28.99,29,29.63-11.3,29.63-29-13.22-29.21-29.63-29.21Z" fill="#1D1D1D"/>
      <path d="M595.47,455.61c7.67,0,13.86,6.4,13.86,14.07s-6.18,14.07-13.86,14.07-14.07-6.4-14.07-14.07,6.4-14.07,14.07-14.07ZM582.67,487.16h25.58v104.47h-25.58v-104.47Z" fill="#1D1D1D"/>
      <path d="M667.53,591.63l-26.01-64.17v64.17h-25.58v-134.31h25.58l38.8,95.94,38.8-95.94h25.58v134.31h-25.58v-64.17l-26.01,64.17h-25.58Z" fill="#1D1D1D"/>
    </g>
    <path d="M631.57,320.52c-.56-1.53-1.41-2.39-2.94-2.9-3.84-1.29-7.62-2.72-11.42-4.12-4.76-1.74-9.5-3.5-14.67-5.41,12-4.79,23.57-9.4,35.14-14.02-.03-.14-.05-.28-.08-.41-27.24.28-54.48.57-81.72.85-.03-.17-.05-.33-.08-.5,27.43-14.82,54.86-29.64,82.39-44.52.02-.52.07-1.04.11-1.55-.7-.65-1.38-1.32-2.05-2,.08.17.17.37.29.62-40.18.55-80.13,1.1-120.09,1.66-.12-.2-.25-.39-.37-.59,2.31-3.1,4.47-6.33,6.96-9.28,9.51-11.25,20.99-20.28,33.23-28.29,10.72-7.01,21.8-13.46,32.71-20.18.34-.21.64-.33.92-.4,0-.41-.02-.82-.02-1.24-.31-.18-.61-.37-.91-.56l-.11.33c-1.88-.09-3.77-.17-5.65-.28-11.55-.66-23.09-1.32-34.64-2-11.47-.68-22.94-1.4-34.41-2.06-9.05-.52-18.1-.96-27.14-1.47-11.55-.66-23.09-1.37-34.64-2.04-8.97-.52-17.95-.98-26.92-1.49-9.12-.52-18.24-.99-27.35-1.65-3.04-.22-5.65.05-8.18,2.11-6.1,4.98-12.4,9.73-18.69,14.48-.98.74-2.32,1.29-3.53,1.38-18.97,1.35-37.94,2.61-56.92,3.88-16.55,1.1-33.1,2.17-49.65,3.27-16.62,1.11-33.24,2.26-49.86,3.36-12.5.83-25,1.58-37.5,2.41-13.96.93-27.92,1.92-41.89,2.88-1.01.07-2.05.12-3.48.19,0,.06-.02.12-.03.18,4.13,5.83,9.71,9.47,14.66,13.81,5.16,4.51,10.21,9.15,15.31,13.74,5.1,4.59,10.21,9.19,15.66,14.1-22.6,2.67-44.59,5.27-66.58,7.86,0,.16-.01.33-.02.49,11.96,5.88,23.92,11.77,35.88,17.65-.04.17-.08.33-.11.5-14.95.74-29.91,1.48-44.86,2.21,0,.18-.02.37-.03.55,13.95,6.64,27.9,13.28,41.84,19.92-8.69.9-16.88,2.86-24.88,5.75-1.33.48-1.98,1.03-2.32,2.46-5.52,23.36-14.38,45.28-28.26,65.02-.23.32-.36.71-.61,1.2.77.14,1.33.28,1.91.35,16.61,1.97,33.22,3.93,49.82,5.91,19.17,2.29,38.33,4.62,57.49,6.92,18.21,2.19,36.42,4.39,54.65,6.51,4.16.48,8.37,1.06,12.52.83,5.8-.31,11.55-1.4,17.34-2,1.21-.13,2.63.16,3.73.71,6.4,3.16,12.73,6.47,19.11,9.69.97.49,2.04.9,3.1,1.06,16.39,2.45,32.79,4.83,49.18,7.26,28.34,4.2,56.68,8.43,85.02,12.63,29.8,4.42,59.6,8.84,89.41,13.18,1.56.23,3.47.14,4.83-.56,42.08-21.52,84.11-43.14,126.15-64.75.76-.39,1.52-.8,2.31-1.22-3.27-4.43-6.54-8.59-9.52-12.95-8.35-12.24-14.45-25.62-19.55-39.48ZM615.97,321.39c-1.07.44-1.71.74-2.38.98-42.47,15.14-84.95,30.27-127.42,45.45-1.83.65-3.48.7-5.35.18-20.6-5.66-41.41-10.33-62.57-13.33-.18-.03-.35-.15-.53-.23.02-.11.03-.22.05-.33,4.68.4,9.38.63,14.03,1.23,19.27,2.49,38.53,5.12,57.81,7.62.99.13,2.17-.26,3.1-.74,17.88-9.32,35.64-18.88,53.63-28,14.24-7.22,28.75-13.89,43.11-20.85,1.53-.74,2.86-.72,4.41-.13,7.2,2.71,14.44,5.34,22.11,8.15ZM594.34,301.98c.33,0,.67.06,1.09.47-3.85,1.53-7.81,2.83-11.53,4.63-15.36,7.45-30.72,14.9-45.92,22.64-15.22,7.75-30.29,15.8-45.35,23.86-2.26,1.21-4.33,1.3-6.73.93-33-5.14-66.1-9.47-99.58-9.41-10.08.02-20.15,1.02-30.23,1.58-.73.04-1.46.07-2.18.1l-.09-.65c10.2-3.32,20.35-6.82,30.61-9.91,34.58-10.42,69.79-18.17,105.25-24.85,16.13-3.04,32.32-5.79,48.49-8.66.58-.1,1.17-.19,1.75-.19,18.13-.18,36.27-.36,54.4-.53ZM605.68,256.25c.79,0,1.59,0,2.38,0l.15.53c-5.04,2.72-10.07,5.45-15.11,8.17-16.77,9.07-33.61,18.03-50.28,27.28-4.27,2.37-8.76,3.25-13.4,4.03-41.46,6.99-82.72,14.96-123.4,25.72-27.71,7.32-55.02,15.84-81.11,27.86-12.13,5.59-23.78,12.03-34.6,19.91-.22.16-.47.28-1.05.2,1.25-2.61,2.41-5.27,3.77-7.83,7.31-13.79,17.51-25.27,28.9-35.76,17-15.64,36.05-28.47,55.82-40.29,17.83-10.67,36.23-20.28,54.94-29.3.95-.46,2.1-.68,3.16-.68,22.04-.02,44.08,0,66.12.02,34.57.04,69.14.1,103.71.14ZM390.03,189.11c3.74-2.75,7.15-4.38,11.92-3.91,8.94.88,17.93,1.19,26.9,1.7,9.04.52,18.09.98,27.14,1.5,9.04.52,18.09,1.07,27.13,1.6,8.82.51,17.65.98,26.47,1.49,9.34.53,18.67,1.1,28.01,1.63,9.04.51,18.09.99,27.61,1.51-.81.59-1.27.98-1.78,1.29-14.03,8.89-27.66,18.3-39.55,29.99-6.39,6.28-12.05,13.12-16.21,21.13-.36.69-1.74,1.19-2.65,1.19-21.16.03-42.32.16-63.47-.15-6.31-.09-11.85,1.19-17.48,4.02-28.79,14.47-57.06,29.79-83.19,48.77-16.46,11.96-31.78,25.16-44.3,41.34-.13.16-.33.27-.49.41-.22-.1-.44-.19-.65-.29,3.96-12.23,7.64-24.56,11.93-36.68,9.59-27.09,22.53-52.44,40.05-75.36,12.14-15.89,26.53-29.36,42.61-41.19ZM136.57,266.75c-.65-.31-1.28-.66-2.58-1.33,10.59-1.25,20.54-2.43,30.48-3.6,5.19-.61,10.38-1.27,15.59-1.75.85-.08,2.05.38,2.63,1.01,19.92,21.5,37.87,44.56,54.83,68.43.08.12.13.26.45.95-.95-.83-1.51-1.29-2.05-1.79-19.72-18.41-41.25-34.21-65.71-45.84-11.23-5.34-22.44-10.72-33.65-16.09ZM131.45,289.18c-.64-.3-1.26-.64-1.89-.97.02-.12.05-.24.07-.36,4.46-.24,8.92-.5,13.38-.72,4.41-.22,8.83-.51,13.25-.53,1.77,0,3.69.28,5.31.98,22.01,9.55,41.59,22.88,59.54,38.81-.7-.41-1.41-.81-2.11-1.23-16.67-9.96-34.29-17.51-53.48-21.18-3.13-.6-6.23-1.68-9.14-3-8.37-3.81-16.63-7.85-24.93-11.8ZM256.03,389.02c-15.41-1.29-30.74-3.5-46.1-5.33-15.43-1.85-30.87-3.69-46.3-5.54-15.36-1.83-30.72-3.66-46.08-5.5-5.63-.67-11.26-1.35-16.89-2.03-1-.12-2-.29-3.27-.47.65-1.12,1.15-2,1.66-2.87,9.26-15.72,15.7-32.58,20.24-50.2.43-1.67,1.08-2.59,2.9-2.96,4.39-.91,8.68-2.66,13.1-3.04,6.72-.58,13.56-.85,20.27-.27,25.21,2.18,47.27,12.75,67.95,26.58,19.47,13.02,36.17,29.03,50.4,47.62.48.63.94,1.27,1.83,2.48-6.98.61-13.42,2.07-19.69,1.54ZM278.85,377.09c-.76-1.13-1.24-1.79-1.68-2.48-18.16-28.63-37.27-56.61-58.38-83.16-7.75-9.74-15.84-19.22-23.96-28.66-14.04-16.33-29.51-31.2-46.53-44.42-.15-.12-.25-.31-.58-.73,70.64-4.47,141.04-8.92,212.1-13.42-1.78,1.88-3.14,3.3-4.48,4.73-22.63,24.14-38.87,52.23-51.12,82.77-9.01,22.45-15.45,45.7-21.23,69.14-1.28,5.21-2.66,10.4-4.15,16.22ZM525.2,431.25c-5.52-.81-11.05-1.61-16.57-2.43-19.53-2.89-39.05-5.78-58.58-8.67-19.45-2.88-38.9-5.78-58.36-8.66-20.4-3.02-40.8-6.02-61.21-9.03-8.23-1.21-16.47-2.42-24.7-3.64-.29-.04-.6-.07-.86-.2-6.24-3.12-12.47-6.25-18.87-9.46,7.75-7.77,16.43-13.63,26.08-18.09,14.08-6.5,28.99-9.72,44.36-11.05,29.82-2.6,59.14,1.21,88.23,7.33,11.45,2.41,22.77,5.41,34.13,8.23,1.03.25,2.31.9,2.78,1.75,11.04,19.96,25.56,37.07,42.43,52.29.43.39.84.8,1.25,1.2-.04.14-.08.28-.12.42ZM646.57,371.42c-36.54,18.77-73.08,37.54-109.62,56.33-1.16.59-2.03,1.03-3.3-.07-16.94-14.68-31.78-31.14-43.08-50.61-.3-.51-.59-1.02-.86-1.54-.06-.11-.02-.28-.05-.67,45.11-16.08,90.28-32.18,135.74-48.38,6.05,15.57,13.27,30.26,23.34,43.74-.82.46-1.48.86-2.17,1.21Z" fill="#1D1D1D"/>
    <path d="M715.34,362.34c-.13,2.36-.28,4.72-.46,7.07,0,.08-.12.08-.13,0-14.05-176.81-161.98-315.91-342.41-315.91S43.55,193.03,29.9,370.24c-.69-8.82-1.03-17.74-1.03-26.73C28.86,154.75,181.11,1.53,369.51.01c197.33-1.59,356.58,165.28,345.83,362.33Z" fill="#1D1D1D"/>
  </g>
  <g>
    <path d="M117.17,610.44v71.9h-4.61v-71.9h4.61Z" fill="#1D1D1D"/>
    <path d="M147.38,630.31c4.1-2.87,9.05-4.3,14.85-4.3,5.19,0,9.81,1.16,13.88,3.48,4.06,2.32,7.24,5.63,9.52,9.93,2.29,4.3,3.43,9.32,3.43,15.06s-1.14,10.77-3.43,15.11c-2.29,4.34-5.46,7.68-9.52,10.04-4.06,2.36-8.69,3.53-13.88,3.53-5.8,0-10.77-1.43-14.9-4.3-4.13-2.87-7.02-6.55-8.65-11.06v14.54h-4.61v-75.79h4.61v34.82c1.71-4.51,4.61-8.19,8.71-11.06ZM181.49,641.37c-1.91-3.69-4.59-6.5-8.04-8.45-3.45-1.95-7.43-2.92-11.93-2.92s-8.19,1.01-11.68,3.02c-3.48,2.02-6.21,4.88-8.19,8.6-1.98,3.72-2.97,8.01-2.97,12.85s.99,9.24,2.97,12.96c1.98,3.72,4.71,6.59,8.19,8.6,3.48,2.01,7.37,3.02,11.68,3.02s8.48-.99,11.93-2.97c3.45-1.98,6.13-4.81,8.04-8.5,1.91-3.69,2.87-8.06,2.87-13.11s-.96-9.42-2.87-13.11Z" fill="#1D1D1D"/>
    <path d="M203.56,639.42c2.29-4.3,5.46-7.61,9.53-9.93,4.06-2.32,8.69-3.48,13.88-3.48,5.87,0,10.86,1.43,14.95,4.3,4.1,2.87,6.96,6.52,8.6,10.96v-14.54h4.61v55.62h-4.61v-14.65c-1.64,4.51-4.52,8.21-8.65,11.11-4.13,2.9-9.1,4.35-14.9,4.35-5.19,0-9.82-1.18-13.88-3.53-4.06-2.36-7.24-5.7-9.53-10.04-2.29-4.33-3.43-9.37-3.43-15.11s1.14-10.75,3.43-15.06ZM247.5,641.62c-2.02-3.72-4.76-6.59-8.25-8.6-3.48-2.01-7.37-3.02-11.68-3.02s-8.47.97-11.88,2.92c-3.42,1.95-6.08,4.76-7.99,8.45-1.91,3.69-2.87,8.06-2.87,13.11s.96,9.42,2.87,13.11c1.91,3.69,4.59,6.52,8.04,8.5,3.45,1.98,7.39,2.97,11.83,2.97s8.21-1.01,11.73-3.02c3.52-2.01,6.26-4.88,8.25-8.6,1.98-3.72,2.97-8.04,2.97-12.96s-1.01-9.13-3.02-12.85Z" fill="#1D1D1D"/>
    <path d="M283.81,628.82c3.48-2.15,7.92-3.23,13.31-3.23v4.81h-1.54c-5.46,0-10,1.55-13.62,4.66-3.62,3.11-5.43,8.18-5.43,15.21v32.06h-4.61v-55.62h4.61v11.47c1.37-4.1,3.79-7.22,7.27-9.37Z" fill="#1D1D1D"/>
    <path d="M357.66,656.32h-48.04c.14,4.98,1.23,9.18,3.28,12.6,2.05,3.42,4.75,5.98,8.09,7.68,3.34,1.71,7,2.56,10.96,2.56,5.46,0,10.04-1.35,13.72-4.05,3.69-2.7,6.01-6.37,6.96-11.01h4.81c-1.09,5.67-3.89,10.26-8.4,13.78-4.51,3.52-10.21,5.27-17.1,5.27-5.19,0-9.83-1.16-13.93-3.48-4.1-2.32-7.31-5.65-9.63-9.99-2.32-4.33-3.48-9.41-3.48-15.21s1.14-10.86,3.43-15.16c2.29-4.3,5.48-7.6,9.58-9.88,4.1-2.29,8.77-3.43,14.03-3.43s9.95,1.14,13.88,3.43c3.93,2.29,6.91,5.33,8.96,9.12,2.05,3.79,3.07,7.87,3.07,12.24,0,2.46-.07,4.3-.21,5.53ZM350.64,640.04c-1.95-3.41-4.59-5.96-7.94-7.63-3.35-1.67-6.96-2.51-10.86-2.51s-7.49.84-10.81,2.51c-3.31,1.67-6.01,4.22-8.09,7.63-2.08,3.42-3.19,7.58-3.33,12.5h43.63c.21-4.92-.67-9.08-2.61-12.5Z" fill="#1D1D1D"/>
    <path d="M378.65,630.72v36.77c0,4.1.75,6.91,2.25,8.45s4.16,2.3,7.99,2.3h6.25v4.1h-6.96c-4.85,0-8.42-1.14-10.7-3.43-2.29-2.29-3.43-6.09-3.43-11.42v-36.77h-8.4v-4h8.4v-14.13h4.61v14.13h16.49v4h-16.49Z" fill="#1D1D1D"/>
    <path d="M407.89,639.42c2.29-4.3,5.46-7.61,9.53-9.93,4.06-2.32,8.69-3.48,13.88-3.48,5.87,0,10.86,1.43,14.95,4.3,4.1,2.87,6.96,6.52,8.6,10.96v-14.54h4.61v55.62h-4.61v-14.65c-1.64,4.51-4.52,8.21-8.65,11.11-4.13,2.9-9.1,4.35-14.9,4.35-5.19,0-9.82-1.18-13.88-3.53-4.06-2.36-7.24-5.7-9.53-10.04-2.29-4.33-3.43-9.37-3.43-15.11s1.14-10.75,3.43-15.06ZM451.83,641.62c-2.01-3.72-4.76-6.59-8.24-8.6-3.48-2.01-7.38-3.02-11.68-3.02s-8.47.97-11.88,2.92c-3.42,1.95-6.08,4.76-7.99,8.45-1.91,3.69-2.87,8.06-2.87,13.11s.96,9.42,2.87,13.11c1.91,3.69,4.59,6.52,8.04,8.5,3.45,1.98,7.39,2.97,11.83,2.97s8.21-1.01,11.73-3.02c3.52-2.01,6.26-4.88,8.25-8.6,1.98-3.72,2.97-8.04,2.97-12.96s-1.01-9.13-3.02-12.85Z" fill="#1D1D1D"/>
    <path d="M557.58,631.69c4.03,4.06,6.04,10.09,6.04,18.08v32.57h-4.51v-32.26c0-6.62-1.59-11.69-4.76-15.21-3.17-3.52-7.53-5.27-13.06-5.27s-10.34,1.98-13.83,5.94c-3.48,3.96-5.22,9.7-5.22,17.21v29.6h-4.51v-32.26c0-6.62-1.59-11.69-4.76-15.21-3.18-3.52-7.53-5.27-13.06-5.27s-10.34,1.98-13.83,5.94c-3.48,3.96-5.22,9.7-5.22,17.21v29.6h-4.61v-55.62h4.61v12.09c1.57-4.37,4.11-7.66,7.63-9.88,3.52-2.22,7.56-3.33,12.14-3.33,5.05,0,9.4,1.32,13.06,3.94,3.65,2.63,6.16,6.5,7.53,11.62,1.3-5.12,3.82-9,7.58-11.62,3.75-2.63,8.16-3.94,13.21-3.94,6.35,0,11.54,2.03,15.57,6.09Z" fill="#1D1D1D"/>
    <path d="M580.58,639.42c2.29-4.3,5.46-7.61,9.53-9.93,4.06-2.32,8.69-3.48,13.88-3.48,5.87,0,10.86,1.43,14.95,4.3,4.1,2.87,6.96,6.52,8.6,10.96v-14.54h4.61v55.62h-4.61v-14.65c-1.64,4.51-4.52,8.21-8.65,11.11-4.13,2.9-9.1,4.35-14.9,4.35-5.19,0-9.82-1.18-13.88-3.53-4.06-2.36-7.24-5.7-9.53-10.04-2.29-4.33-3.43-9.37-3.43-15.11s1.14-10.75,3.43-15.06ZM624.51,641.62c-2.01-3.72-4.76-6.59-8.24-8.6-3.48-2.01-7.38-3.02-11.68-3.02s-8.47.97-11.88,2.92c-3.42,1.95-6.08,4.76-7.99,8.45-1.91,3.69-2.87,8.06-2.87,13.11s.96,9.42,2.87,13.11c1.91,3.69,4.59,6.52,8.04,8.5,3.45,1.98,7.39,2.97,11.83,2.97s8.21-1.01,11.73-3.02c3.52-2.01,6.26-4.88,8.25-8.6,1.98-3.72,2.97-8.04,2.97-12.96s-1.01-9.13-3.02-12.85Z" fill="#1D1D1D"/>
  </g>
</svg>